# Blender v2.76 (sub 0) OBJ File: ''
# www.blender.org
mtllib leverRam.mtl
o Circle
v 0.976252 2.195796 -1.066296
v 0.781161 2.195796 -1.047081
v 0.593568 2.195796 -0.990175
v 0.420681 2.195796 -0.897766
v 0.269145 2.195796 -0.773403
v 0.144782 2.195796 -0.621866
v 0.052372 2.195796 -0.448979
v -0.004534 2.195796 -0.261386
v -0.023748 2.195796 -0.066296
v -0.004534 2.195796 0.128794
v 0.052372 2.195796 0.316387
v 0.144782 2.195796 0.489274
v 0.269145 2.195796 0.640811
v 0.420681 2.195796 0.765174
v 0.593568 2.195796 0.857584
v 0.781162 2.195796 0.914489
v 0.976252 2.195796 0.933704
v 1.171342 2.195796 0.914489
v 1.358935 2.195796 0.857583
v 1.531822 2.195796 0.765173
v 1.683359 2.195796 0.640810
v 1.807722 2.195796 0.489274
v 1.900131 2.195796 0.316387
v 1.957037 2.195796 0.128794
v 1.976252 2.195796 -0.066297
v 1.957037 2.195796 -0.261387
v 1.900131 2.195796 -0.448980
v 1.807721 2.195796 -0.621867
v 1.683357 2.195796 -0.773404
v 1.531821 2.195796 -0.897766
v 1.358934 2.195796 -0.990176
v 1.171340 2.195796 -1.047081
l 2 1
l 3 2
l 4 3
l 5 4
l 6 5
l 7 6
l 8 7
l 9 8
l 10 9
l 11 10
l 12 11
l 13 12
l 14 13
l 15 14
l 16 15
l 17 16
l 18 17
l 19 18
l 20 19
l 21 20
l 22 21
l 23 22
l 24 23
l 25 24
l 26 25
l 27 26
l 28 27
l 29 28
l 30 29
l 31 30
l 32 31
l 1 32
o Cube.001_Cube.006
v 11.065582 3.084445 0.134249
v 11.060598 3.084445 -0.101655
v 12.454980 3.227177 -0.647294
v 12.481765 3.227177 0.620509
v 9.819198 3.464086 0.298792
v 9.808376 3.464086 -0.213409
v 12.454980 4.495263 -0.647294
v 12.481765 4.495263 0.620509
v 11.207252 3.010666 0.329670
v 11.193888 3.010666 -0.302885
v 11.207252 3.643362 0.329670
v 11.193888 3.643362 -0.302885
v 11.063090 -0.368320 0.016297
v 9.819198 3.207928 0.298792
v 9.808376 3.207928 -0.213409
v 9.813787 3.464086 0.042692
v 9.813787 3.207928 0.042692
v 11.060385 -0.368320 -0.111753
v 11.065796 -0.368320 0.144348
v 10.647149 3.125803 0.143090
v 10.642165 3.125803 -0.092815
v 9.811082 3.207928 -0.085359
v 9.816492 3.207928 0.170742
v 10.507178 3.139392 0.028042
v 10.647363 -0.326961 0.153188
v 10.641952 -0.326961 -0.102913
v 11.197864 3.070856 -0.114658
v 11.195159 3.070856 -0.242708
v 11.203275 3.070856 0.141443
v 11.200569 3.070856 0.013393
v 11.205980 3.070856 0.269493
v 10.512589 3.139392 0.284143
v 10.501767 3.139392 -0.228059
v 10.509884 3.139392 0.156093
v 10.644657 -0.326961 0.025138
v 10.504473 3.139392 -0.100008
vn 0.168300 -0.985700 -0.003600
vn -0.557500 0.830100 0.011800
vn -0.999800 0.000000 0.021100
vn -0.263500 0.000000 -0.964700
vn 0.999800 -0.000000 -0.021100
vn -0.222500 0.000000 0.974900
vn -0.032500 -0.072300 0.996900
vn -0.074500 -0.072300 -0.994600
vn -0.128200 0.991800 0.002700
vn -0.098300 -0.995200 0.002100
vn 0.021400 0.002900 0.999800
vn -0.020800 0.002900 -0.999800
vn -0.097600 -0.034000 -0.994600
vn 0.999000 -0.040000 -0.021100
vn -0.055500 -0.034000 0.997900
vn -0.999000 -0.039600 0.021100
vn 0.090900 -0.034100 0.995300
vn 0.048800 -0.034100 -0.998200
usemtl Material.002
s off
f 41//1 42//1 35//1 36//1
f 43//2 40//2 39//2 44//2
f 49//3 48//3 38//3 47//3 54//3
f 42//4 44//4 39//4 35//4
f 35//5 39//5 40//5 36//5
f 43//6 41//6 36//6 40//6
f 63//3 61//3 62//3 59//3 60//3 42//3 41//3
f 37//7 46//7 64//7 63//7 41//7 43//7
f 60//8 65//8 47//8 38//8 44//8 42//8
f 38//9 48//9 37//9 43//9 44//9
f 68//10 54//10 47//10 65//10
f 66//10 55//10 49//10 56//10
f 46//3 37//3 48//3 49//3 55//3
f 51//10 57//10 67//10 45//10
f 33//11 52//11 57//11 51//11
f 64//10 46//10 55//10 66//10
f 50//12 58//12 53//12 34//12
f 45//10 67//10 58//10 50//10
f 56//10 49//10 54//10 68//10
f 50//13 34//13 60//13 59//13
f 51//14 45//14 62//14 61//14
f 45//14 50//14 59//14 62//14
f 33//15 51//15 61//15 63//15
f 52//10 33//10 63//10 64//10
f 34//10 53//10 65//10 60//10
f 67//16 57//16 66//16 56//16
f 57//17 52//17 64//17 66//17
f 53//18 58//18 68//18 65//18
f 58//16 67//16 56//16 68//16
